<?xml version="1.0" encoding="UTF-8"?>
<svg width="180" height="40" viewBox="0 0 180 40" fill="none" xmlns="http://www.w3.org/2000/svg">
  <path d="M20 5L35 30H5L20 5Z" fill="#4D9CFF"/>
  <path d="M50 10H45V30H50V10Z" fill="#4D9CFF"/>
  <path d="M45 5H50V10H45V5Z" fill="#4D9CFF"/>
  <path d="M55 10H60V25C60 26.6569 61.3431 28 63 28H70V30H63C60.2386 30 58 27.7614 58 25V10H55V10Z" fill="#4D9CFF"/>
  <path d="M75 10H80V15C81.2316 11.6562 84.3907 10 87 10V15C83.5 15 80 17 80 22V30H75V10Z" fill="#4D9CFF"/>
  <path d="M90 20C90 14.4772 94.4772 10 100 10C105.523 10 110 14.4772 110 20C110 25.5228 105.523 30 100 30C94.4772 30 90 25.5228 90 20ZM95 20C95 22.7614 97.2386 25 100 25C102.761 25 105 22.7614 105 20C105 17.2386 102.761 15 100 15C97.2386 15 95 17.2386 95 20Z" fill="#4D9CFF"/>
  <path d="M115 5H120V15L127.5 10H135L125 17.5L135 30H127.5L120 20V30H115V5Z" fill="#4D9CFF"/>
  <path d="M140 10H145V30H140V10Z" fill="#4D9CFF"/>
  <path d="M135 5H140V10H135V5Z" fill="#4D9CFF"/>
  <path d="M150 20C150 14.4772 154.477 10 160 10C165.523 10 170 14.4772 170 20C170 25.5228 165.523 30 160 30C154.477 30 150 25.5228 150 20ZM155 20C155 22.7614 157.239 25 160 25C162.761 25 165 22.7614 165 20C165 17.2386 162.761 15 160 15C157.239 15 155 17.2386 155 20Z" fill="#4D9CFF"/>
  <path d="M175 10H180V30H175V25C173.768 28.3438 170.609 30 168 30V25C171.5 25 175 23 175 18V10Z" fill="#4D9CFF"/>
</svg>
