<?xml version="1.0" encoding="utf-8"?>
<svg xmlns="http://www.w3.org/2000/svg" width="3386" height="3386" viewBox="0 0 3386 3386">
  <path fill="#ffffff" transform="matrix(6.31716 0 0 6.31716 0.00012207 0)" d="M272.136 49.5526C272.913 49.9413 273.117 50.4067 273.528 51.2659C278.019 60.6609 282.388 70.2214 286.624 79.727C292.712 93.206 298.721 106.721 304.65 120.27L315.362 144.305C316.984 147.908 320.076 154.274 321.306 157.812C327.067 155.061 334.3 152.315 340.291 149.967L366.509 139.61L414.525 120.301C417.289 119.21 431.934 112.807 433.764 113.197C433.866 113.844 430.025 123.142 429.376 124.784L404.129 190.579L397.003 208.719C395.589 212.324 393.603 216.824 392.748 220.527C409.567 228.829 426.439 237.021 443.364 245.104C453.755 249.971 464.098 254.939 474.391 260.009C481.795 263.594 488.984 266.845 496.171 270.944L425.284 306.482L405.105 316.377C402.344 317.733 396.263 320.543 393.97 322.253C394.586 324.768 396.874 330.365 397.862 332.98L405.188 352.406C411.11 367.899 416.942 383.427 422.685 398.988C426.752 409.758 430.892 420.218 434.508 431.201C432.423 430.077 428.316 428.689 425.988 427.822C420.943 425.969 415.908 424.089 410.883 422.185L351.199 399.701C344.344 397.14 337.512 394.515 330.706 391.828C327.589 390.604 323.313 389.107 320.456 387.671C318.396 393.202 312.935 404.016 310.285 409.623L285.426 462.118L278.561 476.336C277.191 479.139 275.711 481.959 274.518 484.829C274.094 485.85 273.783 487.122 272.747 487.57C271.936 487.268 272.166 487.282 271.63 486.253C269.523 482.866 266.425 475.93 264.572 472.116L250.031 441.776L232.202 405.089C229.904 400.28 226.085 392.751 224.23 387.923C219.184 390.078 213.111 392.15 207.904 394.175C189.677 401.18 171.39 408.03 153.046 414.724C142.479 418.651 131.977 422.769 121.326 426.475C117.522 427.799 113.268 429.682 109.448 430.64C111.314 426.969 112.52 423.302 113.975 419.459L121.799 398.546L138.02 355.973C142.045 345.262 146.049 333.866 150.303 323.307C145.782 321.645 140.962 318.804 136.625 316.617C114.679 305.547 92.8131 294.307 70.8111 283.346L56.9927 276.419C53.8432 274.811 51.2257 273.278 47.9488 271.874L47.5127 271.689L47.4378 271.261C49.6328 268.751 142.454 225.156 151.91 220.556C150.541 218.297 147.562 210.174 146.489 207.421L135.068 177.772L119.437 137.904C117.297 132.568 115.197 127.215 113.136 121.847C112.299 119.688 110.557 115.516 110.011 113.489L110.332 113.008C111.719 112.755 121.739 116.934 123.543 117.626C156.943 130.817 190.212 144.341 223.342 158.197C228.25 146.192 234.267 133.555 239.674 121.715L255.587 86.0027L265.186 64.3022C266.724 60.7643 270.197 52.2527 272.136 49.5526ZM305.083 231.775C307.67 233.636 309.377 234.909 311.71 237.14C313.588 239.027 315.083 241.077 316.565 243.286C318.497 241.976 320.466 241.159 322.54 240.136C331.415 235.758 340.362 231.532 349.268 227.219C352.197 225.801 355.993 224.465 358.624 222.741C363.388 210.383 367.831 197.487 372.492 185.05C373.304 182.882 378.878 168.717 379.076 167.266L378.928 166.965C374.962 169.219 369.103 171.803 364.895 173.772C356.904 177.51 348.889 181.198 340.851 184.833C335.945 187.026 330.487 188.921 325.937 191.742C325.827 191.81 325.714 191.873 325.606 191.943C323.127 193.543 308.999 225.766 305.083 231.775ZM326.645 355.284C330.071 357.101 335.847 358.765 339.664 360.397C351.194 365.327 363.626 369.561 375.108 374.411L381.427 377.116C378.657 371.396 377.003 366.76 374.683 360.919L364.684 335.614C363.461 332.503 361.938 328.15 360.608 325.192L327.437 309.246C325.28 308.188 316.283 303.283 314.94 303.012L314.672 303.308C312.906 305.23 306.697 310.091 307.022 311.016C309.377 317.725 316.5 332.872 319.288 338.878C322.126 344.989 324.044 351.2 326.645 355.284ZM266.308 220.925L272.56 220.898L277.881 220.897L296.437 182.249C295.232 179.212 293.412 175.839 291.999 172.797C289.109 166.438 286.164 160.104 283.165 153.795C279.54 146.156 276.101 138.422 272.652 130.702C272.342 130.007 272.483 130.2 271.856 129.896C264.531 146.889 256.192 163.565 248.648 180.466C248.352 181.129 247.941 182.368 248.345 183.054C249.902 186.418 251.617 189.784 253.206 193.144C257.65 202.368 262.017 211.628 266.308 220.925ZM267.291 324.854C261.287 338.666 254.586 352.695 248.278 366.375C252.288 373.982 255.686 381.609 259.337 389.389C263.099 397.257 266.814 405.148 270.481 413.062L272.215 416.724C276.573 406.601 281.147 396.572 285.933 386.644C288.981 380.206 292.588 372.298 296.043 366.1C293.698 362.261 289.231 351.954 287.077 347.383C284.621 342.297 282.247 337.171 279.957 332.007C279.655 331.333 276.85 324.868 276.703 324.679L276.421 324.655C273.141 325.313 270.641 325.179 267.291 324.854ZM274.393 294.768C287.079 293.612 296.417 282.379 295.236 269.697C294.055 257.014 282.804 247.698 270.124 248.903C257.478 250.106 248.193 261.319 249.371 273.966C250.548 286.614 261.743 295.921 274.393 294.768ZM374.672 247.579C363.383 253.442 352.026 259.172 340.602 264.767C338.166 265.969 326.223 271.3 325.144 272.826C325.774 274.898 356.125 287.989 360.115 290.559C361.033 291.151 372.578 296.869 373.576 296.965C377.973 294.312 383.433 291.854 388.13 289.563L411.905 277.955C415.218 276.329 421.053 273.869 424.014 271.93C415.218 267.367 406.189 263.063 397.318 258.452C392.833 256.103 388.33 253.788 383.809 251.508C382.109 250.644 376.287 247.295 374.672 247.579ZM218.297 272.821C214.381 270.483 208.009 267.52 203.808 265.412L177.405 252.082C175.704 251.219 169.217 247.342 168.066 247.333C165.846 248.35 157.816 252.248 156.146 253.22C152.283 255.471 119.123 271.351 118.668 272.088C119.015 272.787 122.221 274 123.232 274.495L153.11 289.183C156.365 290.748 166.291 295.287 168.779 297.065C177.041 293.444 186.739 288.451 195.008 284.493C200.411 281.959 205.763 279.318 211.06 276.57C213.526 275.311 215.95 274.305 218.297 272.821ZM227.543 243.117C229.339 240.924 230.74 239.269 232.715 237.206C234.549 235.555 236.548 234.179 238.549 232.739C231.767 219.921 226.053 206.242 219.411 193.316C218.489 191.521 209.83 188.08 207.507 187.037C202.953 184.991 198.426 182.888 193.926 180.728L176.183 172.239C173.633 171.02 167.197 167.734 164.769 167.118C167.843 173.219 170.011 179.469 172.44 185.85L182.402 212.143C183.601 215.33 185.067 219.801 186.387 222.782C188.384 223.975 190.414 224.939 192.514 225.941C201.707 230.329 210.776 234.943 220.062 239.132C222.483 240.224 225.268 241.754 227.543 243.117ZM229.574 303.584C225.358 305.732 220.796 307.428 216.649 309.629C206.085 315.234 194.603 319.893 184.063 325.387C182.727 327.224 179.944 334.858 178.903 337.514C175.559 345.835 172.331 354.202 169.22 362.613C167.523 367.091 165.067 372.739 163.585 377.05C165.823 376.166 167.981 375.336 170.157 374.296C180.786 369.934 191.459 365.682 202.175 361.541C207.112 359.584 212.164 357.485 217.086 355.457C217.775 355.173 218.108 354.733 218.458 354.105L218.688 353.698C219.888 351.533 221.273 347.897 222.314 345.54L229.207 330.035C231.922 323.813 235.553 316.779 237.958 310.664C235.055 308.603 232.711 306.431 230.286 303.841C230.135 303.679 229.79 303.629 229.574 303.584Z"/>
</svg>
